<?xml version="1.0" encoding="UTF-8" standalone="no"?>
<!-- Created with Inkscape (http://www.inkscape.org/) -->

<svg
   width="50"
   height="50"
   viewBox="0 0 50 50"
   version="1.1"
   id="svg5"
   xml:space="preserve"
   inkscape:version="1.2.2 (b0a8486541, 2022-12-01)"
   sodipodi:docname="chat.svg"
   xmlns:inkscape="http://www.inkscape.org/namespaces/inkscape"
   xmlns:sodipodi="http://sodipodi.sourceforge.net/DTD/sodipodi-0.dtd"
   xmlns="http://www.w3.org/2000/svg"
   xmlns:svg="http://www.w3.org/2000/svg"><sodipodi:namedview
     id="namedview7"
     pagecolor="#ffffff"
     bordercolor="#999999"
     borderopacity="1"
     inkscape:showpageshadow="0"
     inkscape:pageopacity="0"
     inkscape:pagecheckerboard="0"
     inkscape:deskcolor="#d1d1d1"
     inkscape:document-units="px"
     showgrid="false"
     inkscape:zoom="11.313709"
     inkscape:cx="27.179417"
     inkscape:cy="25.721009"
     inkscape:window-width="1920"
     inkscape:window-height="1007"
     inkscape:window-x="0"
     inkscape:window-y="0"
     inkscape:window-maximized="1"
     inkscape:current-layer="layer1" /><defs
     id="defs2"><filter
       style="color-interpolation-filters:sRGB"
       inkscape:label="Drop Shadow"
       id="filter8844"
       x="-0.23137505"
       y="-0.27996013"
       width="1.4627501"
       height="1.5599202"><feFlood
         flood-opacity="0.643137"
         flood-color="rgb(21,214,15)"
         result="flood"
         id="feFlood8834" /><feComposite
         in="flood"
         in2="SourceGraphic"
         operator="in"
         result="composite1"
         id="feComposite8836" /><feGaussianBlur
         in="composite1"
         stdDeviation="1"
         result="blur"
         id="feGaussianBlur8838" /><feOffset
         dx="0"
         dy="0"
         result="offset"
         id="feOffset8840" /><feComposite
         in="SourceGraphic"
         in2="offset"
         operator="over"
         result="composite2"
         id="feComposite8842" /></filter></defs><g
     inkscape:label="Layer 1"
     inkscape:groupmode="layer"
     id="layer1"><path
       id="path347"
       style="stroke-width:2"
       d="M 25.000976,10.5 C 12.601701,10.499675 2.5498036,16.711827 2.5498045,24.375 c -9e-7,7.663173 10.0518965,13.875325 22.4511715,13.875 1.96666,1.43e-4 3.924831,-0.159427 5.824219,-0.474609 -1.94904,2.600541 -11.0625,4.140625 -11.0625,4.140625 0,0 10.510055,2.375938 18.9375,-3.207032 C 47.127638,33.126016 47.450195,25 47.450195,25 V 24.375 C 47.450196,16.712299 37.399487,10.500342 25.000976,10.5 Z M 13.456054,21.8125 a 2.78125,2.78125 0 0 1 2.78125,2.78125 2.78125,2.78125 0 0 1 -2.78125,2.78125 2.78125,2.78125 0 0 1 -2.78125,-2.78125 2.78125,2.78125 0 0 1 2.78125,-2.78125 z m 11.21875,0 a 2.78125,2.78125 0 0 1 2.78125,2.78125 2.78125,2.78125 0 0 1 -2.78125,2.78125 2.78125,2.78125 0 0 1 -2.78125,-2.78125 2.78125,2.78125 0 0 1 2.78125,-2.78125 z m 11.21875,0 a 2.78125,2.78125 0 0 1 2.78125,2.78125 2.78125,2.78125 0 0 1 -2.78125,2.78125 2.78125,2.78125 0 0 1 -2.78125,-2.78125 2.78125,2.78125 0 0 1 2.78125,-2.78125 z" /></g></svg>
