<?xml version="1.0" encoding="UTF-8" standalone="no"?>
<!-- Created with Inkscape (http://www.inkscape.org/) -->

<svg
   width="10"
   height="5"
   viewBox="0 0 9.9999997 5.0000001"
   version="1.1"
   id="svg5"
   xml:space="preserve"
   inkscape:version="1.2.2 (b0a8486541, 2022-12-01)"
   sodipodi:docname="city.svg"
   xmlns:inkscape="http://www.inkscape.org/namespaces/inkscape"
   xmlns:sodipodi="http://sodipodi.sourceforge.net/DTD/sodipodi-0.dtd"
   xmlns="http://www.w3.org/2000/svg"
   xmlns:svg="http://www.w3.org/2000/svg"><sodipodi:namedview
     id="namedview7"
     pagecolor="#ffffff"
     bordercolor="#999999"
     borderopacity="1"
     inkscape:showpageshadow="0"
     inkscape:pageopacity="0"
     inkscape:pagecheckerboard="0"
     inkscape:deskcolor="#d1d1d1"
     inkscape:document-units="px"
     showgrid="false"
     inkscape:zoom="90.509668"
     inkscape:cx="6.9053397"
     inkscape:cy="2.0550291"
     inkscape:window-width="1920"
     inkscape:window-height="1007"
     inkscape:window-x="1920"
     inkscape:window-y="0"
     inkscape:window-maximized="1"
     inkscape:current-layer="layer1" /><defs
     id="defs2" /><g
     inkscape:label="Layer 1"
     inkscape:groupmode="layer"
     id="layer1"
     transform="translate(-1.6699536,-6.6941406)"><path
       id="path233"
       style="display:inline;stroke:none;stroke-width:0.0347083;stroke-dasharray:none;stroke-opacity:1"
       d="m 6.7013847,6.7116145 c -4.5757459,0 -5.01233,4.9650525 -5.01233,4.9650525 h 9.9808993 c 0,0 -0.392823,-4.9650525 -4.9685693,-4.9650525 z m 0.032316,0.1078469 c 4.0753073,0 4.6959033,4.1207056 4.6959033,4.1207056 h -0.434919 v -0.549474 h -0.251794 v 0.726261 h -0.285456 v -0.717388 h -0.111761 v -0.292824 h -0.08819 v 0.2703 h -0.23227 v 0.369956 H 9.752544 V 8.8521701 H 9.3795644 V 9.4835519 H 8.9850413 V 10.745633 H 8.7319001 v 0.366543 H 8.4895308 V 10.666454 H 8.2114794 V 9.2808271 H 7.8418667 V 10.653486 H 7.701831 V 8.5477415 H 7.3551082 V 11.144939 H 7.0736906 V 7.5614205 H 6.5579828 V 10.138142 H 6.3290786 V 9.3074475 H 5.7648969 V 10.149746 H 5.4235605 V 9.9477029 H 5.0795308 V 8.4037182 h -0.18649 V 7.9484406 h -0.09964 V 8.3962098 H 4.5429521 V 10.40025 h -0.092908 v 0.438212 H 4.2689403 V 8.8412489 H 4.153815 V 9.3231468 H 3.9841564 v 1.5112212 h -0.071363 v 0.29146 H 3.7175503 V 10.637104 H 3.4549836 V 10.209129 H 3.2752265 v 0.417054 H 3.1742398 v 0.504423 H 2.9823637 V 10.761333 H 2.8127051 V 10.177731 H 2.6396805 v 0.580188 l -0.066652,-0.01844 V 11.1306 H 2.2121682 V 10.872588 H 1.9664327 c 0,0 0.7101499,-4.0531306 4.7672681,-4.0531306 z" /></g></svg>
