<?xml version="1.0" encoding="UTF-8" standalone="no"?>
<!-- Created with Inkscape (http://www.inkscape.org/) -->

<svg
   width="50"
   height="50"
   viewBox="0 0 50 50"
   version="1.1"
   id="svg5"
   xml:space="preserve"
   inkscape:version="1.2.2 (b0a8486541, 2022-12-01)"
   sodipodi:docname="pass.svg"
   xmlns:inkscape="http://www.inkscape.org/namespaces/inkscape"
   xmlns:sodipodi="http://sodipodi.sourceforge.net/DTD/sodipodi-0.dtd"
   xmlns="http://www.w3.org/2000/svg"
   xmlns:svg="http://www.w3.org/2000/svg"><sodipodi:namedview
     id="namedview7"
     pagecolor="#ffffff"
     bordercolor="#999999"
     borderopacity="1"
     inkscape:showpageshadow="0"
     inkscape:pageopacity="0"
     inkscape:pagecheckerboard="0"
     inkscape:deskcolor="#d1d1d1"
     inkscape:document-units="px"
     showgrid="false"
     inkscape:zoom="11.313709"
     inkscape:cx="17.014756"
     inkscape:cy="30.493978"
     inkscape:window-width="1920"
     inkscape:window-height="1007"
     inkscape:window-x="0"
     inkscape:window-y="0"
     inkscape:window-maximized="1"
     inkscape:current-layer="layer1" /><defs
     id="defs2"><filter
       style="color-interpolation-filters:sRGB"
       inkscape:label="Drop Shadow"
       id="filter8844"
       x="-0.23137505"
       y="-0.27996013"
       width="1.4627501"
       height="1.5599202"><feFlood
         flood-opacity="0.643137"
         flood-color="rgb(21,214,15)"
         result="flood"
         id="feFlood8834" /><feComposite
         in="flood"
         in2="SourceGraphic"
         operator="in"
         result="composite1"
         id="feComposite8836" /><feGaussianBlur
         in="composite1"
         stdDeviation="1"
         result="blur"
         id="feGaussianBlur8838" /><feOffset
         dx="0"
         dy="0"
         result="offset"
         id="feOffset8840" /><feComposite
         in="SourceGraphic"
         in2="offset"
         operator="over"
         result="composite2"
         id="feComposite8842" /></filter></defs><g
     inkscape:label="Layer 1"
     inkscape:groupmode="layer"
     id="layer1"><g
       aria-label="PASS"
       id="text241"
       style="font-weight:bold;font-family:'Nimbus Sans';-inkscape-font-specification:'Nimbus Sans Bold';stroke-width:2"><path
         d="m 11.620003,26.188001 h 2.244 c 1.608,0 2.64,-1.14 2.64,-2.916 0,-1.752 -0.996,-2.712 -2.82,-2.712 H 9.8200029 v 8.748 h 1.8000001 z m 0,-1.5 v -2.628 h 1.68 c 0.96,0 1.404,0.42 1.404,1.308 0,0.9 -0.444,1.32 -1.404,1.32 z"
         id="path188" /><path
         d="m 22.095998,27.544001 0.576,1.764 h 1.848 l -3.024,-8.748 h -1.992 l -3.108,8.748 h 1.836 l 0.588,-1.764 z m -0.492,-1.5 h -2.28 l 1.14,-3.42 z"
         id="path190" /><path
         d="m 31.816003,23.224001 c -0.012,-1.812 -1.224,-2.808 -3.432,-2.808 -2.1,0 -3.312,0.984 -3.312,2.688 0,1.356 0.684,2.016 2.46,2.352 l 1.224,0.24 c 1.2,0.228 1.644,0.564 1.644,1.272 0,0.732 -0.672,1.176 -1.764,1.176 -1.224,0 -1.908,-0.516 -1.968,-1.452 h -1.752 c 0.108,1.872 1.392,2.892 3.624,2.892 2.256,0 3.588,-1.044 3.588,-2.832 0,-1.38 -0.696,-2.1 -2.316,-2.412 l -1.368,-0.264 c -1.284,-0.252 -1.656,-0.504 -1.656,-1.14 0,-0.66 0.576,-1.08 1.512,-1.08 1.14,0 1.776,0.48 1.836,1.368 z"
         id="path192" /><path
         d="m 39.867998,23.224001 c -0.012,-1.812 -1.224,-2.808 -3.432,-2.808 -2.1,0 -3.312,0.984 -3.312,2.688 0,1.356 0.684,2.016 2.46,2.352 l 1.224,0.24 c 1.2,0.228 1.644,0.564 1.644,1.272 0,0.732 -0.672,1.176 -1.764,1.176 -1.224,0 -1.908,-0.516 -1.968,-1.452 h -1.752 c 0.108,1.872 1.392,2.892 3.624,2.892 2.256,0 3.588,-1.044 3.588,-2.832 0,-1.38 -0.696,-2.1 -2.316,-2.412 l -1.368,-0.264 c -1.284,-0.252 -1.656,-0.504 -1.656,-1.14 0,-0.66 0.576,-1.08 1.512,-1.08 1.14,0 1.776,0.48 1.836,1.368 z"
         id="path194" /></g><path
       id="rect453"
       style="color:#000000;stroke-dasharray:10.0949, 1.68248;-inkscape-stroke:none;stroke:none"
       d="M 5.6386719 17.279297 L 5.6386719 18.121094 L 5.6386719 18.65625 L 5.6386719 25.501953 L 7.3203125 25.501953 L 7.3203125 18.960938 L 16.574219 18.960938 L 16.574219 17.279297 L 7.078125 17.279297 L 6.4804688 17.279297 L 5.6386719 17.279297 z M 18.257812 17.279297 L 18.257812 18.960938 L 28.351562 18.960938 L 28.351562 17.279297 L 18.257812 17.279297 z M 30.035156 17.279297 L 30.035156 18.960938 L 40.128906 18.960938 L 40.128906 17.279297 L 30.035156 17.279297 z M 41.8125 17.279297 L 41.8125 18.960938 L 42.679688 18.960938 L 42.679688 26.505859 L 44.361328 26.505859 L 44.361328 17.279297 L 41.8125 17.279297 z M 5.6386719 27.183594 L 5.6386719 32.720703 L 11.878906 32.720703 L 11.878906 31.039062 L 7.3203125 31.039062 L 7.3203125 27.183594 L 5.6386719 27.183594 z M 42.679688 28.189453 L 42.679688 31.039062 L 37.115234 31.039062 L 37.115234 32.720703 L 44.361328 32.720703 L 44.361328 28.189453 L 42.679688 28.189453 z M 13.560547 31.039062 L 13.560547 32.720703 L 23.65625 32.720703 L 23.65625 31.039062 L 13.560547 31.039062 z M 25.337891 31.039062 L 25.337891 32.720703 L 35.433594 32.720703 L 35.433594 31.039062 L 25.337891 31.039062 z " /></g></svg>
