<?xml version="1.0" encoding="UTF-8" standalone="no"?>
<!-- Created with Inkscape (http://www.inkscape.org/) -->

<svg
   width="70mm"
   height="50mm"
   viewBox="0 0 70 50"
   version="1.1"
   id="svg22247"
   xml:space="preserve"
   inkscape:version="1.2.2 (b0a8486541, 2022-12-01)"
   sodipodi:docname="tr.svg"
   xmlns:inkscape="http://www.inkscape.org/namespaces/inkscape"
   xmlns:sodipodi="http://sodipodi.sourceforge.net/DTD/sodipodi-0.dtd"
   xmlns:xlink="http://www.w3.org/1999/xlink"
   xmlns="http://www.w3.org/2000/svg"
   xmlns:svg="http://www.w3.org/2000/svg"><sodipodi:namedview
     id="namedview22249"
     pagecolor="#ffffff"
     bordercolor="#999999"
     borderopacity="1"
     inkscape:showpageshadow="0"
     inkscape:pageopacity="0"
     inkscape:pagecheckerboard="0"
     inkscape:deskcolor="#d1d1d1"
     inkscape:document-units="mm"
     showgrid="false"
     inkscape:zoom="2.9469416"
     inkscape:cx="109.09615"
     inkscape:cy="100.10378"
     inkscape:window-width="1920"
     inkscape:window-height="1007"
     inkscape:window-x="1920"
     inkscape:window-y="0"
     inkscape:window-maximized="1"
     inkscape:current-layer="layer1" /><defs
     id="defs22244"><linearGradient
       inkscape:collect="always"
       id="linearGradient22899"><stop
         style="stop-color:#df7100;stop-opacity:1;"
         offset="0"
         id="stop22895" /><stop
         style="stop-color:#bf2309;stop-opacity:1;"
         offset="1"
         id="stop22897" /></linearGradient><linearGradient
       inkscape:collect="always"
       xlink:href="#linearGradient22899"
       id="linearGradient22901"
       x1="124.43198"
       y1="121.00375"
       x2="124.43198"
       y2="166.96741"
       gradientUnits="userSpaceOnUse" /><filter
       style="color-interpolation-filters:sRGB"
       inkscape:label="Drop Shadow"
       id="filter24704"
       x="-0.21566601"
       y="-0.27955631"
       width="1.431332"
       height="1.5591126"><feFlood
         flood-opacity="1"
         flood-color="rgb(255,205,133)"
         result="flood"
         id="feFlood24694" /><feComposite
         in="flood"
         in2="SourceGraphic"
         operator="in"
         result="composite1"
         id="feComposite24696" /><feGaussianBlur
         in="composite1"
         stdDeviation="2.1"
         result="blur"
         id="feGaussianBlur24698" /><feOffset
         dx="0"
         dy="0"
         result="offset"
         id="feOffset24700" /><feComposite
         in="SourceGraphic"
         in2="offset"
         operator="over"
         result="fbSourceGraphic"
         id="feComposite24702" /><feColorMatrix
         result="fbSourceGraphicAlpha"
         in="fbSourceGraphic"
         values="0 0 0 -1 0 0 0 0 -1 0 0 0 0 -1 0 0 0 0 1 0"
         id="feColorMatrix24706" /><feFlood
         id="feFlood24708"
         flood-opacity="1"
         flood-color="rgb(255,205,133)"
         result="flood"
         in="fbSourceGraphic" /><feComposite
         in2="fbSourceGraphic"
         id="feComposite24710"
         in="flood"
         operator="in"
         result="composite1" /><feGaussianBlur
         id="feGaussianBlur24712"
         in="composite1"
         stdDeviation="2.1"
         result="blur" /><feOffset
         id="feOffset24714"
         dx="0"
         dy="0"
         result="offset" /><feComposite
         in2="offset"
         id="feComposite24716"
         in="fbSourceGraphic"
         operator="over"
         result="composite2" /></filter><clipPath
       clipPathUnits="userSpaceOnUse"
       id="clipPath25083"><rect
         style="fill:url(#linearGradient25087);fill-opacity:1;stroke:#000000;stroke-width:1.005;stroke-dasharray:none;stroke-opacity:1"
         id="rect25085"
         width="66.786964"
         height="47.487305"
         x="91.927299"
         y="120.24191" /></clipPath><linearGradient
       inkscape:collect="always"
       xlink:href="#linearGradient22899"
       id="linearGradient25087"
       gradientUnits="userSpaceOnUse"
       x1="124.43198"
       y1="121.00375"
       x2="124.43198"
       y2="166.96741" /></defs><g
     inkscape:label="Layer 1"
     inkscape:groupmode="layer"
     id="layer1"
     transform="translate(0.00386526,0.00386367)"><g
       id="g25092"
       transform="matrix(1.0325819,0,0,1.0310758,-94.407839,-123.4639)"><rect
         style="fill:url(#linearGradient22901);fill-opacity:1;stroke:#000000;stroke-width:1.005;stroke-dasharray:none;stroke-opacity:1"
         id="rect22893"
         width="66.786964"
         height="47.487305"
         x="91.927299"
         y="120.24191" /><rect
         style="fill:#e84f09;fill-opacity:1;stroke-width:0.0045992"
         id="rect23289"
         width="59.676567"
         height="40.146137"
         x="95.482498"
         y="123.9125" /><path
         style="fill:#000000;stroke-width:0.264583;filter:url(#filter24704)"
         d="m 121.99458,159.96357 c -0.0761,-2.01841 -0.0887,-2.05184 -0.80488,-2.13424 -0.51402,-0.0591 -0.7276,-0.2339 -0.7276,-0.59531 0,-0.47188 0.20691,-0.5116 2.66523,-0.5116 2.39539,0 2.65634,0.0469 2.57741,0.46302 -0.0641,0.33776 -0.39143,0.48503 -1.21003,0.54438 l -1.12219,0.0814 v 2.10146 c 0,2.05557 -0.0142,2.10145 -0.65033,2.10145 -0.62813,0 -0.65297,-0.07 -0.72761,-2.05052 z m 1.9071,0.19844 v -1.85209 h 0.77875 c 0.48796,0 0.9222,0.20481 1.16294,0.54851 0.36751,0.52469 0.40354,0.49023 0.83001,-0.79375 0.42007,-1.2647 0.49811,-1.34226 1.35061,-1.34226 h 0.90478 v 2.64584 2.64583 h -0.66146 c -0.62653,0 -0.66252,-0.0803 -0.68159,-1.52136 l -0.0201,-1.52135 -0.33402,0.92604 c -0.35738,0.99079 -0.99936,1.30062 -1.62281,0.7832 -0.32187,-0.26713 -0.38416,-0.18488 -0.38416,0.50732 0,0.70484 -0.0971,0.82615 -0.66145,0.82615 -0.64256,0 -0.66146,-0.0529 -0.66146,-1.85208 z m -9.525,1.20121 c 0.50933,-0.19195 1.62274,-0.71934 2.47427,-1.17198 1.12536,-0.59821 1.9022,-0.82298 2.84427,-0.82298 0.71282,0 1.29605,0.10847 1.29605,0.24106 0,0.44138 -1.59051,1.58695 -2.58791,1.86396 -0.54118,0.1503 -1.87694,0.26555 -2.96834,0.25611 -1.94203,-0.0168 -1.96462,-0.0246 -1.05834,-0.36617 z m 17.58926,0.14043 c -1.01227,-0.24277 -2.18711,-1.00662 -2.52806,-1.6437 -0.24116,-0.45062 -0.14632,-0.49128 1.13523,-0.48668 1.11883,0.004 1.87439,0.24167 3.77962,1.18887 l 2.38125,1.18386 -1.98438,-0.0253 c -1.0914,-0.0139 -2.34405,-0.11159 -2.78366,-0.21702 z m -21.16113,-1.72545 c -1.14836,-0.38549 -1.60076,-0.63047 -1.19063,-0.64474 0.3638,-0.0126 1.4949,-0.21681 2.51354,-0.45369 1.50389,-0.34971 2.0635,-0.3733 2.97657,-0.12548 0.61846,0.16786 1.12448,0.42142 1.12448,0.56347 0,0.47223 -1.70624,1.30703 -2.64584,1.2945 -0.50932,-0.007 -1.75948,-0.29211 -2.77812,-0.63406 z m 24.73854,0.46068 c -0.52383,-0.19261 -1.32291,-0.89692 -1.32291,-1.16602 0,-0.11735 0.50239,-0.34866 1.11642,-0.514 0.89288,-0.24042 1.48889,-0.2177 2.97656,0.11349 1.02308,0.22776 2.09827,0.45626 2.38931,0.50778 0.72978,0.12919 -2.87162,1.25215 -3.93048,1.22557 -0.45761,-0.0115 -1.01061,-0.0866 -1.2289,-0.16682 z m -18.06589,-1.71 c -0.69629,-0.25407 -1.67127,-1.75495 -2.15499,-3.31737 -0.15977,-0.51608 0.006,-0.45995 1.40931,0.47714 1.54412,1.03112 2.93657,2.40915 2.93657,2.90616 0,0.31586 -1.24743,0.27832 -2.19089,-0.0659 z m 13.30471,0.0143 c 0.002,-0.63332 1.13029,-1.77249 2.83472,-2.86275 l 1.64542,-1.05251 -0.53722,1.37797 c -0.29547,0.75788 -0.80938,1.65476 -1.14202,1.99305 -0.71806,0.73024 -2.80303,1.13537 -2.8009,0.54424 z m -22.4909,-1.01932 c -1.18979,-0.63994 -2.98485,-2.23125 -2.25222,-1.99658 0.28925,0.0926 1.30128,0.23764 2.24896,0.32221 1.62216,0.14475 3.47736,0.81579 3.82917,1.38503 0.2404,0.38898 -0.76072,0.8122 -1.89029,0.79911 -0.55527,-0.006 -1.4263,-0.23582 -1.93562,-0.50977 z m 5.84634,0.18684 c -1.05527,-0.54232 -1.57861,-1.54066 -1.76638,-3.36954 l -0.17657,-1.71979 0.89257,1.14712 c 1.81911,2.33788 2.0832,2.7844 2.0832,3.52222 0,0.84235 -0.11778,0.89025 -1.03282,0.41999 z m 20.87658,0.0616 c 0,-0.85632 1.41311,-3.17482 2.97817,-4.8863 0.28062,-0.30686 -0.0175,2.58642 -0.36118,3.50561 -0.35535,0.95035 -2.61699,2.14355 -2.61699,1.38069 z m 3.58664,-0.0803 c -0.45382,-0.33184 -0.43159,-0.39016 0.36494,-0.95733 0.58937,-0.41967 1.45542,-0.67206 2.8382,-0.82714 1.0945,-0.12274 2.23212,-0.30001 2.52804,-0.39393 0.88436,-0.28069 0.33006,0.28925 -1.41402,1.4539 -1.73885,1.16117 -3.35018,1.43157 -4.31716,0.7245 z m -27.81136,-1.96605 c -1.07408,-0.74492 -1.36014,-2.07889 -1.00362,-4.68003 l 0.17167,-1.25247 0.90124,2.30499 c 0.86528,2.21302 1.03706,3.56475 0.47521,3.7394 -0.14552,0.0452 -0.39054,-0.005 -0.5445,-0.11189 z m 27.92888,-0.72934 c 0,-0.51264 0.38677,-1.85209 0.85947,-2.97656 l 0.85947,-2.04448 0.17926,1.19062 c 0.34793,2.31103 0.2559,3.08992 -0.46651,3.94845 -0.92727,1.102 -1.43169,1.06042 -1.43169,-0.11803 z m -15.74271,0.38368 c -0.87526,-0.13077 -2.4778,-0.67527 -3.57187,-1.21362 -5.08536,-2.50231 -7.99166,-7.96641 -7.17334,-13.48648 0.75374,-5.08434 4.2103,-9.19989 8.98575,-10.69888 3.42165,-1.07403 8.12874,-0.5381 10.69911,1.21817 l 1.00214,0.68474 1.31296,-1.09928 c 0.72213,-0.6046 1.31296,-1.1626 1.31296,-1.24 0,-0.0774 -0.34017,-0.0727 -0.75595,0.0105 -0.48236,0.0965 -1.30244,-0.0709 -2.26596,-0.46253 l -1.51,-0.61371 2.19981,-0.59614 c 6.59598,-1.7875 7.62463,-2.04193 7.63376,-1.88818 0.031,0.52251 -2.53647,9.51637 -2.67102,9.35648 -0.4233,-0.50305 -1.08497,-2.80983 -0.97338,-3.39355 0.16003,-0.83715 -0.0104,-0.75317 -1.22499,0.60352 l -0.99063,1.10656 0.94995,1.43073 c 1.45406,2.18997 2.03737,3.97358 2.1881,6.69067 0.20772,3.74423 -0.83945,6.68627 -3.36243,9.44682 -3.01594,3.29991 -7.31572,4.81194 -11.78497,4.14421 z m 1.71979,-4.23314 v -2.40028 l -1.52135,0.173 c -2.57633,0.29297 -2.52887,0.25422 -1.88048,1.53553 0.83477,1.64964 1.54811,2.57705 2.17776,2.83131 1.17106,0.47289 1.22407,0.38022 1.22407,-2.13956 z m 2.83368,1.62886 c 0.69346,-0.90802 1.92813,-3.43092 1.7358,-3.54686 -0.11212,-0.0676 -0.97776,-0.16541 -1.92364,-0.21739 l -1.7198,-0.0945 -0.0786,1.95962 c -0.0432,1.07778 -0.0161,2.12251 0.0603,2.3216 0.17625,0.4593 1.46907,0.17572 1.92588,-0.42244 z m -6.87563,-1.60542 c -0.46906,-0.8707 -0.9719,-1.58441 -1.11742,-1.58602 -0.74709,-0.008 -2.24255,0.58419 -2.0915,0.82859 0.25623,0.4146 3.31149,2.34053 3.71296,2.34053 0.23252,0 0.0645,-0.52776 -0.50404,-1.5831 z m 9.99508,0.81756 c 0.72761,-0.41832 1.53729,-0.99877 1.79931,-1.28989 0.46466,-0.51629 0.45555,-0.53658 -0.37021,-0.82444 -1.41699,-0.49396 -1.65029,-0.37411 -2.51991,1.29451 -0.45441,0.87195 -0.69254,1.58425 -0.52916,1.58288 0.16338,-10e-4 0.89236,-0.34474 1.61997,-0.76306 z m -11.84011,-3.23037 c 0.70664,-0.26627 0.69101,-0.10878 0.19844,-1.99989 -0.21828,-0.83804 -0.39687,-2.03447 -0.39687,-2.65874 v -1.13504 h -2.24896 c -2.03089,0 -2.24896,0.0486 -2.24896,0.50129 0,0.93371 1.04058,3.85877 1.73354,4.87299 0.62448,0.91398 0.76793,0.99153 1.52834,0.82619 0.46154,-0.10036 1.10705,-0.28342 1.43447,-0.4068 z m 16.12982,-1.29575 c 0.46995,-0.94589 0.96068,-2.34487 1.09052,-3.10886 l 0.23607,-1.38906 h -2.18958 -2.18958 l -0.17039,1.12448 c -0.0937,0.61846 -0.30816,1.77932 -0.47656,2.57969 -0.41933,1.99304 -0.45016,1.89758 0.73273,2.26824 1.75769,0.55078 2.02708,0.41689 2.96679,-1.47449 z m -11.10273,0.53146 0.85989,-0.002 v -2.51354 -2.51354 h -2.68179 -2.6818 l 0.16823,1.25677 c 0.0925,0.69122 0.30938,1.89582 0.48189,2.67688 l 0.31366,1.42011 1.34001,-0.16104 c 0.737,-0.0886 1.72696,-0.16207 2.19991,-0.16334 z m 6.52723,-1.57588 c 0.22995,-1.01099 0.41808,-2.20162 0.41808,-2.64584 v -0.80766 h -2.65576 -2.65576 l 0.0761,2.44739 0.0761,2.4474 1.32291,0.15687 c 3.1499,0.37351 2.94852,0.46767 3.41838,-1.59816 z m -11.55623,-6.69465 c 0.17257,-1.20054 0.38488,-2.42563 0.47179,-2.72241 0.13541,-0.46241 -0.0412,-0.6033 -1.23453,-0.98492 -1.24955,-0.39959 -1.43835,-0.40387 -1.83852,-0.0417 -0.64869,0.58706 -1.75759,3.21865 -1.96999,4.6751 l -0.18327,1.25677 h 2.22037 2.22037 z m 5.88889,-0.16744 v -2.35025 l -2.05052,-0.25986 c -1.12779,-0.14292 -2.13057,-0.21509 -2.22841,-0.16037 -0.22998,0.12861 -1.01273,3.56452 -1.01273,4.44536 v 0.67538 h 2.64583 2.64583 z m 6.08542,1.34751 c 0,-0.81622 -0.65797,-3.97675 -0.87257,-4.19135 -0.0313,-0.0313 -1.03835,0.0684 -2.23797,0.2216 l -2.18113,0.27844 v 2.34703 2.34703 h 2.64584 2.64583 z m 5.36688,0.0106 c -0.38118,-2.42271 -1.9301,-5.46737 -2.67311,-5.25444 -2.14535,0.6148 -2.69334,0.77741 -2.69063,0.7984 0.002,0.0134 0.17891,0.67911 0.39374,1.47948 0.21482,0.80036 0.39201,1.83242 0.39373,2.29346 0.006,1.60133 0.11762,1.67529 2.52836,1.67529 h 2.20402 z m -11.4523,-7.23858 v -2.40993 l -0.7276,0.172 c -0.86166,0.2037 -1.59853,1.03749 -2.55165,2.88725 -0.82583,1.60273 -0.71579,1.71178 1.7579,1.74202 l 1.52135,0.0186 z m 4.64146,2.09 c 0.16661,-0.16661 -1.11971,-2.76383 -1.84611,-3.72749 -0.19715,-0.26155 -0.6984,-0.49967 -1.11388,-0.52917 l -0.75543,-0.0536 -0.0769,2.34557 -0.0769,2.34557 1.84863,-0.10445 c 1.01674,-0.0575 1.926,-0.18184 2.02057,-0.27641 z m -8.56899,-2.0434 0.96726,-1.82509 -0.75257,0.26234 c -0.92729,0.32326 -3.48737,2.09594 -3.62175,2.50782 -0.0826,0.25309 1.24746,0.77723 2.17522,0.85722 0.14552,0.0125 0.69985,-0.79849 1.23184,-1.80229 z m 11.10674,1.5277 c 0.56258,-0.16855 1.02288,-0.39609 1.02288,-0.50564 0,-0.34629 -1.6127,-1.573 -2.97646,-2.26406 -0.72243,-0.36609 -1.271,-0.56697 -1.21905,-0.44641 0.66543,1.54414 1.73259,3.49889 1.91585,3.50929 0.12864,0.007 0.69419,-0.12462 1.25678,-0.29318 z m -25.72312,19.2277 c -0.58062,-0.31567 -2.3877,-2.43071 -2.9908,-3.50048 -0.0998,-0.17708 0.49001,0.0313 1.31076,0.46302 0.82075,0.43174 1.65376,0.78498 1.85114,0.78498 0.53094,0 2.57791,2.03759 2.37568,2.3648 -0.24473,0.39598 -1.73253,0.33036 -2.54678,-0.11232 z m 35.47725,0.0273 c 0,-0.45785 1.98788,-2.27974 2.48744,-2.27974 0.20308,0 1.03828,-0.35194 1.856,-0.78208 l 1.48676,-0.78208 -0.77605,1.12794 c -0.42682,0.62037 -1.26271,1.56761 -1.85752,2.105 -0.86671,0.78301 -1.29152,0.97705 -2.13906,0.97705 -0.72414,0 -1.05757,-0.11542 -1.05757,-0.36609 z m -34.00273,-2.38024 c -0.52732,-1.26206 -0.49789,-1.80871 0.19967,-3.7088 l 0.59277,-1.61466 0.36873,2.09637 c 0.55956,3.18133 -0.24547,5.41866 -1.16117,3.22709 z m 33.85211,-0.0365 c -0.19336,-1.03067 0.0629,-4.05542 0.38808,-4.58166 0.13568,-0.21953 0.40576,0.1815 0.77887,1.15649 0.68392,1.78719 0.69027,1.93085 0.14557,3.2922 -0.52542,1.31315 -1.08057,1.36939 -1.31252,0.13297 z m -36.62647,-1.3848 c -0.69854,-0.34896 -1.13277,-0.88511 -1.76753,-2.1824 -1.48427,-3.03349 -1.42527,-3.19405 0.53677,-1.46077 1.63651,1.44571 2.96606,3.38882 2.65886,3.88588 -0.19301,0.31231 -0.38104,0.28035 -1.4281,-0.24271 z m 39.29543,0.20662 c -0.30304,-0.49034 0.73229,-2.00223 2.63251,-3.84423 l 1.91063,-1.85208 -0.74557,1.91678 c -0.96465,2.48001 -1.39163,3.10553 -2.46879,3.61667 -1.03659,0.4919 -1.11916,0.50202 -1.32878,0.16286 z m -38.24364,-2.27395 c -0.53752,-1.41379 -0.25715,-2.4307 1.19891,-4.3484 l 0.70312,-0.92605 -0.18301,2.11667 c -0.17913,2.07183 -0.74029,3.83646 -1.22,3.83646 -0.13254,0 -0.3571,-0.30541 -0.49902,-0.67868 z m 37.44475,-0.11574 c -0.31264,-0.60457 -0.99335,-4.94054 -0.81741,-5.20665 0.0174,-0.0264 0.48392,0.59917 1.03664,1.3901 1.01637,1.45442 1.27862,2.69807 0.85225,4.04146 -0.24885,0.78406 -0.58636,0.71322 -1.07148,-0.22491 z m -39.61567,-2.37161 c -0.36373,-0.28611 -0.79137,-0.85166 -0.95031,-1.25677 -0.34816,-0.8874 -0.845,-3.61232 -0.83062,-4.55548 0.01,-0.62941 0.0393,-0.61222 0.40699,0.23532 0.21815,0.50288 0.69435,1.30465 1.05823,1.78172 1.07358,1.40753 1.88618,4.31541 1.20594,4.31541 -0.1259,0 -0.5265,-0.23409 -0.89023,-0.5202 z m 41.80783,0.37486 c -0.33188,-0.33188 0.42993,-2.49794 1.52788,-4.34422 l 1.17509,-1.97602 v 1.1031 c 0,1.90306 -0.52215,3.71151 -1.31744,4.56287 -0.72815,0.77948 -1.08962,0.95018 -1.38553,0.65427 z m -40.42411,-2.65018 c 0,-1.51283 0.21396,-1.90954 1.67614,-3.10769 l 1.17459,-0.96248 -0.49473,1.58957 c -0.55335,1.77791 -0.91119,2.54488 -1.50497,3.22559 -0.6409,0.73475 -0.85103,0.5508 -0.85103,-0.74499 z m 39.05652,0.40224 c -0.37291,-0.44318 -0.80328,-1.30639 -0.95637,-1.91823 -0.15309,-0.61185 -0.46491,-1.52658 -0.69293,-2.03275 l -0.4146,-0.92029 1.30907,1.18488 c 1.5583,1.41045 1.91498,2.05236 1.91498,3.44628 0,1.25621 -0.25989,1.31 -1.16015,0.24011 z m -40.64692,-3.22912 c -0.54886,-0.90018 -0.66092,-2.31722 -0.35802,-4.52713 0.17658,-1.28826 0.6255,-1.69839 0.6255,-0.57145 0,0.36085 0.16809,1.10499 0.37353,1.65364 0.52491,1.40183 0.69786,2.58591 0.51282,3.51109 -0.20398,1.0199 -0.50208,1.00281 -1.15383,-0.0661 z m 42.24804,0.68351 c -0.3327,-0.33271 -0.17605,-2.07543 0.35278,-3.92466 0.29104,-1.01772 0.5394,-2.20796 0.55191,-2.64499 l 0.0228,-0.79459 0.25875,0.79375 c 0.14231,0.43656 0.2809,1.80578 0.30798,3.04271 0.0397,1.81406 -0.0462,2.38966 -0.44421,2.97656 -0.50324,0.74204 -0.73661,0.86456 -1.04995,0.55122 z m -40.65183,-1.47726 c 0.003,-0.1819 0.23263,-0.83033 0.50985,-1.44096 0.38943,-0.85779 0.80725,-1.26388 1.83748,-1.78594 0.73339,-0.37164 1.38803,-0.6757 1.45475,-0.6757 0.22305,0 -1.54964,2.72561 -2.26619,3.48439 -0.73186,0.775 -1.54606,0.9967 -1.53589,0.41821 z m 38.57422,-0.52917 c -0.43866,-0.47294 -1.19713,-1.48917 -1.68551,-2.25828 l -0.88795,-1.39838 1.59046,0.8477 c 1.64993,0.87941 2.03848,1.33918 2.36857,2.80274 0.26128,1.15849 -0.31445,1.16108 -1.38557,0.006 z m -38.87235,-2.89609 c -0.47904,-0.8951 -0.35489,-2.53898 0.3258,-4.3138 l 0.60884,-1.5875 0.23818,1.70693 c 0.23995,1.71957 -0.1087,4.32959 -0.62061,4.64597 -0.12834,0.0793 -0.37683,-0.1239 -0.55221,-0.4516 z m 39.75712,-0.4419 c -0.32675,-1.09058 -0.35883,-3.35879 -0.066,-4.66565 0.16871,-0.75292 0.20793,-0.70605 0.76245,0.91127 0.63053,1.83901 0.74778,3.44879 0.31069,4.2655 -0.40665,0.75984 -0.66575,0.62835 -1.00714,-0.51112 z m -37.8773,-0.0486 c 0,-0.97222 0.78309,-2.08734 1.84699,-2.6301 0.57329,-0.29247 1.11405,-0.53176 1.20169,-0.53176 0.363,0 -1.35798,2.72471 -2.0177,3.19447 -0.9019,0.64221 -1.03098,0.63813 -1.03098,-0.0326 z m 36.03118,0.1227 c -0.59038,-0.41352 -1.64312,-1.91624 -1.97765,-2.82296 -0.15544,-0.42133 -0.0729,-0.4142 0.88961,0.0768 1.07767,0.54978 2.09574,1.86159 2.09754,2.70272 0.001,0.573 -0.2387,0.58332 -1.0095,0.0434 z m -0.1973,-3.45468 c -0.37704,-0.55666 -0.50581,-1.18198 -0.48851,-2.3722 0.0394,-2.70912 0.32608,-2.88946 1.05585,-0.6642 0.73573,2.24342 0.7725,2.6602 0.29256,3.31656 -0.32575,0.44549 -0.38047,0.42766 -0.8599,-0.28016 z m -35.65198,0.26382 c -0.33436,-0.33435 -0.18037,-1.53151 0.45192,-3.51338 0.67595,-2.11872 0.68025,-2.11616 1.078,0.64155 0.21574,1.49584 -0.86925,3.5325 -1.52992,2.87183 z"
         id="path22743"
         sodipodi:nodetypes="scsssccssssccsssscccsscssssscssssssssssscsssscssscscssssscsssssscscsscscsscssscssssssssssssscscsscsscsssssssscsssccssssscsssssscssssssscssssscssssssscsssscssssssscccssssccccccssccccsscccccsssssssscccsccsssccccssccccccssscssscsccsssccsscccccssscsscssssscsssssssssscsssssscsssssssssssssscssssscsssscsssssssssssscssssscsssssscsssssssssscsccsssccsssssscscssccsscsssssssssssssscsscccsssssssss"
         clip-path="url(#clipPath25083)" /></g><path
       style="fill:#ffffff;fill-opacity:0.191981;stroke:none;stroke-width:1.46663;stroke-dasharray:none;stroke-opacity:1"
       d="M 1.7893331,23.540008 V 1.600059 H 68.202931 v 21.755857 c 0,0 -22.204272,2.246199 -33.206798,2.246199 -11.002526,0 -33.2067999,-2.062107 -33.2067999,-2.062107 z"
       id="path16694"
       sodipodi:nodetypes="cccczc" /></g></svg>
