<?xml version="1.0" encoding="UTF-8" standalone="no"?>
<!-- Created with Inkscape (http://www.inkscape.org/) -->

<svg
   width="50"
   height="50"
   viewBox="0 0 50 50"
   version="1.1"
   id="svg5"
   xml:space="preserve"
   inkscape:version="1.2.2 (b0a8486541, 2022-12-01)"
   sodipodi:docname="unmi.svg"
   xmlns:inkscape="http://www.inkscape.org/namespaces/inkscape"
   xmlns:sodipodi="http://sodipodi.sourceforge.net/DTD/sodipodi-0.dtd"
   xmlns="http://www.w3.org/2000/svg"
   xmlns:svg="http://www.w3.org/2000/svg"><sodipodi:namedview
     id="namedview7"
     pagecolor="#ffffff"
     bordercolor="#999999"
     borderopacity="1"
     inkscape:showpageshadow="0"
     inkscape:pageopacity="0"
     inkscape:pagecheckerboard="0"
     inkscape:deskcolor="#d1d1d1"
     inkscape:document-units="px"
     showgrid="false"
     inkscape:zoom="11.313709"
     inkscape:cx="14.4073"
     inkscape:cy="23.157746"
     inkscape:window-width="1920"
     inkscape:window-height="1007"
     inkscape:window-x="0"
     inkscape:window-y="0"
     inkscape:window-maximized="1"
     inkscape:current-layer="layer1" /><defs
     id="defs2"><filter
       style="color-interpolation-filters:sRGB"
       inkscape:label="Drop Shadow"
       id="filter8844"
       x="-0.23137505"
       y="-0.27996013"
       width="1.4627501"
       height="1.5599202"><feFlood
         flood-opacity="0.643137"
         flood-color="rgb(21,214,15)"
         result="flood"
         id="feFlood8834" /><feComposite
         in="flood"
         in2="SourceGraphic"
         operator="in"
         result="composite1"
         id="feComposite8836" /><feGaussianBlur
         in="composite1"
         stdDeviation="1"
         result="blur"
         id="feGaussianBlur8838" /><feOffset
         dx="0"
         dy="0"
         result="offset"
         id="feOffset8840" /><feComposite
         in="SourceGraphic"
         in2="offset"
         operator="over"
         result="composite2"
         id="feComposite8842" /></filter></defs><g
     inkscape:label="Layer 1"
     inkscape:groupmode="layer"
     id="layer1"><g
       id="g1428"
       style="fill-opacity:1;stroke:none"
       transform="translate(-0.35355337,0.08838834)"><path
         id="path444"
         style="fill-opacity:1;stroke:none;stroke-width:0.783178"
         d="m 47.486328,2.2890625 -15.65625,3.8496094 4.472656,2.3378906 1.794922,0.089844 L 34.886719,11.75 A 19.97716,19.97716 0 0 0 23.21875,7.9296875 19.97716,19.97716 0 0 0 3.2421875,27.90625 19.97716,19.97716 0 0 0 23.21875,47.882812 19.97716,19.97716 0 0 0 43.195312,27.90625 19.97716,19.97716 0 0 0 38.113281,14.621094 l 3.091797,-3.060547 0.09375,1.914062 2.339844,4.470703 z M 24.1875,10.900391 a 17.034834,17.034834 0 0 1 1.054688,0.0957 c 0.912937,0.870142 2.872359,2.985436 4.40625,6.357422 -1.598155,0.319668 -3.434012,0.562248 -5.460938,0.626953 z m -2,0.05078 v 7.035156 c -2.004567,-0.05513 -3.830962,-0.283386 -5.441406,-0.585937 1.512832,-3.34571 3.449453,-5.46581 4.384765,-6.365235 a 17.034834,17.034834 0 0 1 1.056641,-0.08398 z m 6.341797,0.773437 a 17.034834,17.034834 0 0 1 6.59375,4.003907 c -0.828152,0.340269 -2.020839,0.771737 -3.519531,1.169922 -0.950626,-2.164967 -2.078265,-3.887617 -3.074219,-5.173829 z m -10.65625,0.01367 c -1.004313,1.298963 -2.140022,3.04176 -3.09375,5.232422 -1.494439,-0.372325 -2.718532,-0.779924 -3.597656,-1.115234 a 17.034834,17.034834 0 0 1 6.691406,-4.117188 z m 18.664062,5.554688 A 17.034834,17.034834 0 0 1 40.214844,26.8125 H 38.5 v 2 h 1.728516 a 17.034834,17.034834 0 0 1 -3.792969,9.833984 C 35.530678,38.250887 34.022242,37.668342 32.025391,37.142578 32.517934,35.720492 32.943524,34.168497 33.246094,32.5 h -2.03711 c -0.291852,1.502497 -0.685804,2.904065 -1.138672,4.185547 -1.727545,-0.34936 -3.705065,-0.613006 -5.882812,-0.679688 V 32.5 h -2 V 36 c -2.155027,0.0568 -4.124261,0.306119 -5.861328,0.636719 C 15.880497,35.368605 15.493148,33.983429 15.205078,32.5 h -2.039062 c 0.296963,1.638658 0.714185,3.165363 1.195312,4.566406 -1.944472,0.481565 -3.466329,1.021013 -4.4433592,1.416016 A 17.034834,17.034834 0 0 1 6.25,28.75 h 1.125 v -2 H 6.2734375 A 17.034834,17.034834 0 0 1 9.8085938,17.458984 C 10.730686,17.836435 12.18816,18.363962 14.056641,18.84375 13.671332,19.968804 13.34761,21.190031 13.109375,22.5 h 2.025391 c 0.222639,-1.151234 0.512732,-2.224918 0.855468,-3.210938 1.815053,0.362514 3.904946,0.636851 6.197266,0.697266 V 22.5 h 2 v -2.519531 c 2.320327,-0.07105 4.411772,-0.364599 6.216797,-0.748047 0.351142,1.001786 0.650072,2.093973 0.876953,3.267578 h 2.025391 c -0.24388,-1.340923 -0.579437,-2.587253 -0.976563,-3.734375 1.942065,-0.530116 3.362852,-1.09737 4.207031,-1.472656 z M 22.1875,38 v 6.859375 A 17.034834,17.034834 0 0 1 20.638672,44.738281 C 19.786509,43.618769 18.334245,41.475472 17.070312,38.527344 18.601642,38.25473 20.315385,38.051449 22.1875,38 Z m 2,0.0059 c 1.893582,0.06041 3.614636,0.277739 5.136719,0.566407 -1.261481,2.929494 -2.705504,5.05953 -3.552735,6.171875 A 17.034834,17.034834 0 0 1 24.1875,44.912109 Z m -9.113281,0.935547 c 0.849138,2.050422 1.795824,3.752934 2.626953,5.060547 a 17.034834,17.034834 0 0 1 -6.378906,-3.923828 c 0.927255,-0.347808 2.196917,-0.764381 3.751953,-1.136719 z m 16.236328,0.07031 c 1.557058,0.39772 2.81504,0.839538 3.691406,1.193359 A 17.034834,17.034834 0 0 1 28.6875,44.037109 c 0.82746,-1.297468 1.772996,-2.986691 2.623047,-5.02539 z" /><text
         xml:space="preserve"
         style="font-weight:bold;font-size:10.4418px;font-family:'Nimbus Sans';-inkscape-font-specification:'Nimbus Sans Bold';fill-opacity:1;stroke:none;stroke-width:1.74029;stroke-dasharray:none"
         x="8.3771334"
         y="32.436806"
         id="text1423"
         transform="scale(1.0439823,0.95787064)"><tspan
           sodipodi:role="line"
           id="tspan1421"
           x="8.3771334"
           y="32.436806"
           style="fill-opacity:1;stroke:none;stroke-width:1.74029">UNMI</tspan></text></g></g></svg>
