<?xml version="1.0" encoding="UTF-8" standalone="no"?>
<!-- Created with Inkscape (http://www.inkscape.org/) -->

<svg
   width="50"
   height="50"
   viewBox="0 0 50 50"
   version="1.1"
   id="svg5"
   xml:space="preserve"
   inkscape:version="1.2.2 (b0a8486541, 2022-12-01)"
   sodipodi:docname="steel.svg"
   xmlns:inkscape="http://www.inkscape.org/namespaces/inkscape"
   xmlns:sodipodi="http://sodipodi.sourceforge.net/DTD/sodipodi-0.dtd"
   xmlns:xlink="http://www.w3.org/1999/xlink"
   xmlns="http://www.w3.org/2000/svg"
   xmlns:svg="http://www.w3.org/2000/svg"><sodipodi:namedview
     id="namedview7"
     pagecolor="#ffffff"
     bordercolor="#999999"
     borderopacity="1"
     inkscape:showpageshadow="0"
     inkscape:pageopacity="0"
     inkscape:pagecheckerboard="0"
     inkscape:deskcolor="#d1d1d1"
     inkscape:document-units="px"
     showgrid="false"
     inkscape:zoom="8"
     inkscape:cx="32.125"
     inkscape:cy="12.625"
     inkscape:window-width="1920"
     inkscape:window-height="1007"
     inkscape:window-x="1920"
     inkscape:window-y="0"
     inkscape:window-maximized="1"
     inkscape:current-layer="layer1" /><defs
     id="defs2"><linearGradient
       inkscape:collect="always"
       id="linearGradient3963"><stop
         style="stop-color:#915f36;stop-opacity:1;"
         offset="0"
         id="stop3959" /><stop
         style="stop-color:#7e4f24;stop-opacity:1;"
         offset="0.71214068"
         id="stop7435" /><stop
         style="stop-color:#432918;stop-opacity:1;"
         offset="1"
         id="stop3961" /></linearGradient><linearGradient
       inkscape:collect="always"
       xlink:href="#linearGradient3963"
       id="linearGradient3965"
       x1="2.6807919"
       y1="0.13473392"
       x2="2.6807919"
       y2="2.8815079"
       gradientUnits="userSpaceOnUse"
       gradientTransform="scale(16.666666)" /></defs><g
     inkscape:label="Layer 1"
     inkscape:groupmode="layer"
     id="layer1"><rect
       style="fill:url(#linearGradient3965);fill-opacity:1;stroke:#000000;stroke-width:1.17532;stroke-dasharray:none;stroke-opacity:1"
       id="rect3635"
       width="48.824677"
       height="48.824677"
       x="0.58766079"
       y="0.58766079" /><rect
       style="fill:#976439;fill-opacity:1;stroke:none;stroke-width:0.8428;stroke-dasharray:none;stroke-opacity:1"
       id="rect3046"
       width="42.501339"
       height="42.42849"
       x="3.6794822"
       y="3.5597723" /><path
       style="fill:#422918;fill-opacity:1;stroke:#260e00;stroke-width:0.666667;stroke-dasharray:none;stroke-opacity:1"
       d="M 17.016835,38.895416 16.265452,20.365273 19.879145,18.247226 V 13.201878 L 16.317332,11.36931 v 5.006321 h -2.79786 V 11.36931 l -3.5618133,1.832568 v 5.045348 l 3.6136933,2.118047 -0.751383,18.530143 z"
       id="path17748"
       sodipodi:nodetypes="ccccccccccccc" /><path
       id="path18345"
       style="fill:#422918;fill-opacity:1;stroke:#260e00;stroke-width:0.666667;stroke-dasharray:none;stroke-opacity:1"
       d="m 29.457086,13.997396 c -0.863367,0.03943 -1.617767,0.15785 -1.790365,0.358073 -0.345167,0.400453 -0.325517,1.074218 -0.325517,1.074218 h -0.8138 c 0,0 0.0415,-0.665383 -0.358066,-1.074218 -0.399567,-0.408837 -3.385417,-0.260417 -3.385417,-0.260417 V 18.75 c 0,0 2.985853,0.148333 3.385417,-0.260417 0.399533,-0.40885 0.358066,-1.074217 0.358066,-1.074217 h 0.6836 c -0.03383,0.222084 5.14e-4,1.081067 0.475567,1.371217 0.542917,0.331633 2.323913,0.288933 2.323913,0.288933 l -0.6836,19.791666 h 4.296869 L 32.940159,18.977865 h 1.66015 c -0.027,-0.30535 -0.005,-0.61305 0.06517,-0.91145 0.418383,-1.54031 2.010415,-2.445874 3.548176,-2.01823 0.990734,0.274073 1.760042,1.055793 2.01823,2.050781 -0.04083,-0.510266 -0.27045,-2.591694 -1.334633,-3.320312 -1.216217,-0.832712 -5.793765,-0.758183 -6.998696,-0.78125 -0.602467,-0.01153 -1.57805,-0.03943 -2.441407,0 z"
       sodipodi:nodetypes="sccccccccccccccccccsss" /><path
       style="fill:#ffffff;fill-opacity:0.146595;stroke:none;stroke-width:1.16667;stroke-dasharray:none;stroke-opacity:1"
       d="M 2.4826624,23.130139 V 2.5539389 H 47.29337 V 22.957489 c 0,0 -14.981709,2.10658 -22.405354,2.10658 -7.423645,0 -22.4053536,-1.93393 -22.4053536,-1.93393 z"
       id="path16694"
       sodipodi:nodetypes="cccczc" /></g></svg>
