<?xml version="1.0" encoding="UTF-8" standalone="no"?>
<!-- Created with Inkscape (http://www.inkscape.org/) -->

<svg
   width="50"
   height="50"
   viewBox="0 0 50 50"
   version="1.1"
   id="svg5"
   xml:space="preserve"
   inkscape:version="1.2.2 (b0a8486541, 2022-12-01)"
   sodipodi:docname="city.svg"
   xmlns:inkscape="http://www.inkscape.org/namespaces/inkscape"
   xmlns:sodipodi="http://sodipodi.sourceforge.net/DTD/sodipodi-0.dtd"
   xmlns:xlink="http://www.w3.org/1999/xlink"
   xmlns="http://www.w3.org/2000/svg"
   xmlns:svg="http://www.w3.org/2000/svg"><sodipodi:namedview
     id="namedview7"
     pagecolor="#ffffff"
     bordercolor="#999999"
     borderopacity="1"
     inkscape:showpageshadow="0"
     inkscape:pageopacity="0"
     inkscape:pagecheckerboard="0"
     inkscape:deskcolor="#d1d1d1"
     inkscape:document-units="px"
     showgrid="false"
     inkscape:zoom="8.0000004"
     inkscape:cx="42.249998"
     inkscape:cy="29.249999"
     inkscape:window-width="1920"
     inkscape:window-height="1007"
     inkscape:window-x="0"
     inkscape:window-y="0"
     inkscape:window-maximized="1"
     inkscape:current-layer="layer1" /><defs
     id="defs2"><linearGradient
       inkscape:collect="always"
       id="linearGradient1449"><stop
         style="stop-color:#cdcdcd;stop-opacity:1;"
         offset="0"
         id="stop1445" /><stop
         style="stop-color:#676767;stop-opacity:1;"
         offset="1"
         id="stop1447" /></linearGradient><filter
       style="color-interpolation-filters:sRGB"
       inkscape:label="Drop Shadow"
       id="filter8844"
       x="-0.23137505"
       y="-0.27996013"
       width="1.4627501"
       height="1.5599202"><feFlood
         flood-opacity="0.643137"
         flood-color="rgb(21,214,15)"
         result="flood"
         id="feFlood8834" /><feComposite
         in="flood"
         in2="SourceGraphic"
         operator="in"
         result="composite1"
         id="feComposite8836" /><feGaussianBlur
         in="composite1"
         stdDeviation="1"
         result="blur"
         id="feGaussianBlur8838" /><feOffset
         dx="0"
         dy="0"
         result="offset"
         id="feOffset8840" /><feComposite
         in="SourceGraphic"
         in2="offset"
         operator="over"
         result="composite2"
         id="feComposite8842" /></filter><linearGradient
       inkscape:collect="always"
       xlink:href="#linearGradient1449"
       id="linearGradient1451"
       x1="25"
       y1="0"
       x2="25"
       y2="50"
       gradientUnits="userSpaceOnUse" /></defs><g
     inkscape:label="Layer 1"
     inkscape:groupmode="layer"
     id="layer1"><circle
       style="fill:url(#linearGradient1451);stroke-width:1.175;fill-opacity:1;stroke:#000000;stroke-opacity:1;stroke-dasharray:none"
       id="path390"
       cx="25"
       cy="25"
       r="25" /><circle
       style="fill:#a1a1a1;fill-opacity:1;stroke:none;stroke-width:1.04106;stroke-dasharray:none;stroke-opacity:1"
       id="circle3026"
       cx="25"
       cy="25"
       r="22.150156" /><path
       id="path233"
       style="display:inline;fill:#000000;fill-opacity:1;stroke:none;stroke-width:0.0241749;stroke-dasharray:none;stroke-opacity:1"
       d="M 25.080504,12.875035 C 8.2455,12.875035 6.6392389,31.142361 6.6392389,31.142361 H 43.360761 c 0,0 -1.445262,-18.267326 -18.280257,-18.267326 z m 0.118201,0.396789 c 14.993781,0 17.27706,15.160819 17.27706,15.160819 h -1.599437 v -2.021615 h -0.92639 v 2.672046 H 38.899643 V 26.443676 H 38.48846 V 25.36632 h -0.324424 v 0.994487 h -0.854489 v 1.361134 H 36.3064 v -6.971416 h -1.372204 v 2.322968 h -1.451712 v 4.643425 h -0.931392 v 1.348576 H 31.659325 V 27.425605 H 30.636293 V 22.32763 h -1.359826 v 5.050261 h -0.515201 v -7.747414 h -1.275693 v 9.555559 h -1.03541 V 16.001625 H 24.55279 v 9.480223 h -0.84212 v -3.056275 h -2.075684 v 3.098969 H 20.379175 V 24.781186 H 19.113351 V 19.100591 H 18.427249 V 17.425542 H 18.0607 v 1.647424 h -0.921382 v 7.373226 h -0.341801 v 1.612261 h -0.666354 v -7.348108 h -0.423562 v 1.772988 H 15.08338 v 5.560059 h -0.262546 v 1.072324 H 14.10244 V 27.31762 h -0.966021 v -1.574595 h -0.661348 v 1.534415 h -0.371557 v 1.855864 h -0.705986 v -1.358623 h -0.624221 v -2.147179 h -0.636596 v 2.134617 l -0.2452869,-0.06787 v 1.439017 H 8.5637155 V 28.184003 H 7.6595759 c 0,0 2.6127711,-14.912197 17.5396431,-14.912197 z" /></g></svg>
