<?xml version="1.0" encoding="UTF-8" standalone="no"?>
<!-- Created with Inkscape (http://www.inkscape.org/) -->

<svg
   width="50"
   height="50"
   viewBox="0 0 50 50"
   version="1.1"
   id="svg5"
   xml:space="preserve"
   inkscape:version="1.2.2 (b0a8486541, 2022-12-01)"
   sodipodi:docname="microbes.svg"
   xmlns:inkscape="http://www.inkscape.org/namespaces/inkscape"
   xmlns:sodipodi="http://sodipodi.sourceforge.net/DTD/sodipodi-0.dtd"
   xmlns:xlink="http://www.w3.org/1999/xlink"
   xmlns="http://www.w3.org/2000/svg"
   xmlns:svg="http://www.w3.org/2000/svg"><sodipodi:namedview
     id="namedview7"
     pagecolor="#ffffff"
     bordercolor="#999999"
     borderopacity="1"
     inkscape:showpageshadow="0"
     inkscape:pageopacity="0"
     inkscape:pagecheckerboard="0"
     inkscape:deskcolor="#d1d1d1"
     inkscape:document-units="px"
     showgrid="false"
     inkscape:zoom="11.313709"
     inkscape:cx="29.079765"
     inkscape:cy="25.721008"
     inkscape:window-width="1920"
     inkscape:window-height="1007"
     inkscape:window-x="0"
     inkscape:window-y="0"
     inkscape:window-maximized="1"
     inkscape:current-layer="layer1" /><defs
     id="defs2"><linearGradient
       inkscape:collect="always"
       id="linearGradient3044"><stop
         style="stop-color:#adf637;stop-opacity:1;"
         offset="0"
         id="stop3040" /><stop
         style="stop-color:#83be27;stop-opacity:1;"
         offset="1"
         id="stop3042" /></linearGradient><linearGradient
       inkscape:collect="always"
       id="linearGradient1449"><stop
         style="stop-color:#a4de10;stop-opacity:1;"
         offset="0"
         id="stop1445" /><stop
         style="stop-color:#4c7c01;stop-opacity:1;"
         offset="1"
         id="stop1447" /></linearGradient><filter
       style="color-interpolation-filters:sRGB"
       inkscape:label="Drop Shadow"
       id="filter8844"
       x="-0.23137505"
       y="-0.27996013"
       width="1.4627501"
       height="1.5599202"><feFlood
         flood-opacity="0.643137"
         flood-color="rgb(21,214,15)"
         result="flood"
         id="feFlood8834" /><feComposite
         in="flood"
         in2="SourceGraphic"
         operator="in"
         result="composite1"
         id="feComposite8836" /><feGaussianBlur
         in="composite1"
         stdDeviation="1"
         result="blur"
         id="feGaussianBlur8838" /><feOffset
         dx="0"
         dy="0"
         result="offset"
         id="feOffset8840" /><feComposite
         in="SourceGraphic"
         in2="offset"
         operator="over"
         result="composite2"
         id="feComposite8842" /></filter><linearGradient
       inkscape:collect="always"
       xlink:href="#linearGradient1449"
       id="linearGradient1451"
       x1="25"
       y1="0"
       x2="25"
       y2="50"
       gradientUnits="userSpaceOnUse" /><radialGradient
       inkscape:collect="always"
       xlink:href="#linearGradient3044"
       id="radialGradient3038"
       cx="25"
       cy="25"
       fx="25"
       fy="25"
       r="22.150156"
       gradientUnits="userSpaceOnUse" /></defs><g
     inkscape:label="Layer 1"
     inkscape:groupmode="layer"
     id="layer1"><circle
       style="fill:url(#linearGradient1451);stroke-width:1.175;fill-opacity:1;stroke:#000000;stroke-opacity:1;stroke-dasharray:none"
       id="path390"
       cx="25"
       cy="25"
       r="25" /><circle
       style="fill:url(#radialGradient3038);fill-opacity:1;stroke:none;stroke-width:1.04106;stroke-dasharray:none;stroke-opacity:1"
       id="circle3026"
       cx="25"
       cy="25"
       r="22.150156" /><g
       id="g1812"
       style="fill:#2a710c;fill-opacity:1"
       transform="matrix(16.666666,0,0,16.666666,-70.512629,1.2775842)"><path
         style="fill:#2a710c;fill-opacity:1;stroke-width:0.0113386"
         d="m 4.9994658,1.8285339 c -0.044235,0.00385 -0.1196858,0.083738 -0.1546796,0.044194 -0.034994,-0.039544 0.084031,-0.1046268 0.060767,-0.1436311 -0.023264,-0.039004 -0.1040413,0.026066 -0.1160097,-0.011049 -0.011968,-0.037115 0.095167,-0.033135 0.088388,-0.07734 -0.00678,-0.044205 -0.1390429,-0.017848 -0.1381068,-0.060767 9.361e-4,-0.042919 0.083283,0.011832 0.099437,-0.03867 0.016153,-0.050502 -0.1332333,-0.1235637 -0.1160097,-0.1767767 0.017224,-0.053213 0.091089,-0.00372 0.1160097,-0.044194 0.024921,-0.040477 -0.048322,-0.1266417 -0.016573,-0.1602039 0.031749,-0.033562 0.082201,0.040921 0.1160097,0.00552 0.033809,-0.035397 -0.065572,-0.1463078 -0.016573,-0.17677668 0.049,-0.0304688 0.093475,0.10361218 0.1436311,0.0883884 0.050156,-0.015224 0.013775,-0.12413695 0.060767,-0.13258222 0.046992,-0.008445 0.052274,0.10461372 0.099437,0.0994369 0.047163,-0.00518 0.027028,-0.11977793 0.07734,-0.121534 0.050312,-0.001756 0.045723,0.1177909 0.093913,0.1270583 0.04819,0.00927 0.081855,-0.0932616 0.1160097,-0.0718155 0.034155,0.0214461 -0.042338,0.0851889 -0.011049,0.10496082 0.031289,0.019772 0.061207,-0.0831475 0.099437,-0.060767 0.038229,0.02238 -0.045028,0.1242425 -0.00552,0.1491554 0.039504,0.024913 0.0834,-0.092211 0.1160097,-0.060767 0.03261,0.031444 -0.084527,0.081394 -0.060767,0.1270582 0.02376,0.045664 0.1512405,-0.028002 0.1657281,0.027621 0.014488,0.055624 -0.1202934,0.063184 -0.1381068,0.1104854 -0.017813,0.047301 3.647e-4,0.078588 0.022097,0.1244564 0.021732,0.045869 0.1048136,0.087819 0.1160097,0.1351844 0.011196,0.047365 -1.51e-5,0.086499 -0.027621,0.1104854 -0.027606,0.023986 -0.084689,-0.018312 -0.1049611,0.011049 -0.020272,0.02936 0.061256,0.077184 0.027621,0.1049611 C 5.6784668,1.8894515 5.6132808,1.7683205 5.573994,1.7953835 5.534707,1.8224465 5.623861,1.9016843 5.585043,1.927966 5.546224,1.954248 5.500652,1.84477 5.4524605,1.861675 5.4042685,1.87858 5.4411185,1.9993077 5.3861695,2.0053061 5.3312195,2.0113061 5.3398015,1.8750156 5.2812084,1.8671993 5.2226102,1.8593875 5.1883656,1.9956439 5.1375726,1.9776892 5.0867796,1.9597345 5.135446,1.8667917 5.104427,1.8395824 5.073408,1.8123731 5.0437007,1.8246886 4.9994658,1.8285339 Z"
         id="path1702"
         sodipodi:nodetypes="zzzzzzzzzzzzzzzzzzzzzzzzzzzzzzzzzzzzzz" /><path
         style="fill:#2a710c;fill-opacity:1;stroke-width:0.0113386"
         d="m 5.6071357,0.5248058 c 0.011314,-0.0316409 0.075676,0.007188 0.099437,-0.0165728 0.023761,-0.0237608 -0.014472,-0.0865777 0.016573,-0.0994369 0.043904,-0.0181857 0.069135,0.0906766 0.1160097,0.0828641 0.046875,-0.007813 0.036922,-0.12816149 0.082864,-0.1160097 0.051901,0.0137282 -0.019398,0.12035047 0.016573,0.16020388 0.030247,0.0335114 0.1013103,-0.004936 0.1325825,0.0276213 0.038796,0.0403902 -0.017686,0.13280663 0.027621,0.16572815 0.030127,0.0218913 0.080867,-0.0391469 0.1104854,-0.0165728 0.036876,0.0281057 -0.022854,0.11370727 0.016573,0.13810679 0.023278,0.0144057 0.054535,-0.0427642 0.07734,-0.0276214 0.027655,0.0183632 -0.022226,0.0812117 0.00552,0.0994369 0.031164,0.0204702 0.072189,-0.0564529 0.1049611,-0.0386699 0.036515,0.019814 -0.00704,0.098637 0.027621,0.12153398 0.034357,0.022694 0.08777,-0.0456642 0.121534,-0.0220971 0.035251,0.0246047 -0.013154,0.1024535 0.022097,0.1270582 0.033764,0.023567 0.095361,-0.053884 0.1215339,-0.022097 0.028909,0.03511 -0.065481,0.084397 -0.049718,0.1270583 0.01085,0.029364 0.084916,0.012957 0.082864,0.044194 -0.00309,0.047098 -0.105698,0.010924 -0.1325826,0.049718 -0.025173,0.036324 0.038028,0.1100659 0,0.1325825 -0.05602,0.03317 -0.1061507,-0.094484 -0.1712524,-0.093913 -0.029691,2.604e-4 -0.050874,0.057654 -0.07734,0.044194 -0.029726,-0.015118 0.017416,-0.08206 -0.011049,-0.099437 -0.03532,-0.021561 -0.083089,0.069266 -0.1160097,0.044194 -0.030903,-0.023536 0.032241,-0.083455 0.011049,-0.1160097 -0.022238,-0.034161 -0.1014617,-5.928e-4 -0.1160097,-0.03867 -0.010597,-0.027737 0.059097,-0.051659 0.044194,-0.07734 -0.022182,-0.038223 -0.104355,0.034007 -0.132578,0 -0.019144,-0.023067 0.033568,-0.063695 0.016573,-0.088388 C 6.0312579,0.9825461 5.9551199,1.0291406 5.9330679,0.9943675 5.9177579,0.9702262 5.9705669,0.9355859 5.9551649,0.9115034 5.9320029,0.8752882 5.8515506,0.9254394 5.8281066,0.8894063 5.8115446,0.8639504 5.8694086,0.8245437 5.8502036,0.8010179 5.8233946,0.7681783 5.747494,0.8412448 5.7231454,0.8065419 5.7037014,0.7788287 5.7786824,0.7419823 5.7618154,0.7126293 5.7349574,0.6658897 5.6178987,0.7419197 5.6016115,0.6905322 5.5901955,0.6545151 5.6825675,0.650927 5.6844755,0.6131924 5.6864555,0.5740936 5.5939545,0.5616688 5.6071357,0.5248058 Z"
         id="path1751"
         sodipodi:nodetypes="aaaaaaaaaaaaaaaaaaaaaaaaaaaaaaaaaaaaaaa" /><path
         style="fill:#2a710c;fill-opacity:1;stroke-width:0.0113386"
         d="M 5.2314852,2.3478154 C 5.2317382,2.3093664 5.2417572,2.2682364 5.2646312,2.23733 5.2922792,2.199973 5.3377622,2.177917 5.3806409,2.15999 5.4309529,2.138955 5.4908785,2.148688 5.5408447,2.126844 5.5843877,2.107808 5.6113787,2.057774 5.6568544,2.04398 5.7132704,2.026867 5.7774747,2.067446 5.8336311,2.0495 5.8887081,2.031899 5.9178351,1.965466 5.9717376,1.9445436 c 0.037922,-0.01472 0.084489,0.00575 0.121534,-0.011049 0.048632,-0.022059 0.067409,-0.088358 0.1160097,-0.1104855 0.053864,-0.024524 0.1194591,-0.00183 0.1767767,-0.016573 0.044726,-0.011506 0.080897,-0.053826 0.1270582,-0.055243 0.043086,-0.00132 0.098593,0.0077 0.121534,0.044194 0.029546,0.047003 0.011611,0.1178958 -0.016573,0.1657281 -0.029561,0.05017 -0.1005597,0.060249 -0.1436311,0.099437 -0.033832,0.030782 -0.049202,0.081369 -0.088388,0.1049612 -0.059719,0.035954 -0.1397445,0.018137 -0.2043981,0.044194 -0.068253,0.027508 -0.1177969,0.0934 -0.1878252,0.1160097 -0.049191,0.015883 -0.1053876,-0.00452 -0.1546797,0.01105 -0.071672,0.022632 -0.1199857,0.099673 -0.1933495,0.1160097 -0.070466,0.015691 -0.1433361,-0.025532 -0.2154466,-0.022097 -0.056273,0.00268 -0.1176277,0.062474 -0.1657281,0.033146 -0.034338,-0.020937 -0.03341,-0.075793 -0.033146,-0.1160104 z"
         id="path1802"
         sodipodi:nodetypes="ssssssssssssssssssssss" /></g></g></svg>
