<?xml version="1.0" encoding="UTF-8" standalone="no"?>
<!-- Created with Inkscape (http://www.inkscape.org/) -->

<svg
   width="50"
   height="50"
   viewBox="0 0 50 50"
   version="1.1"
   id="svg5"
   xml:space="preserve"
   inkscape:version="1.2.2 (b0a8486541, 2022-12-01)"
   sodipodi:docname="space.svg"
   xmlns:inkscape="http://www.inkscape.org/namespaces/inkscape"
   xmlns:sodipodi="http://sodipodi.sourceforge.net/DTD/sodipodi-0.dtd"
   xmlns:xlink="http://www.w3.org/1999/xlink"
   xmlns="http://www.w3.org/2000/svg"
   xmlns:svg="http://www.w3.org/2000/svg"><sodipodi:namedview
     id="namedview7"
     pagecolor="#ffffff"
     bordercolor="#999999"
     borderopacity="1"
     inkscape:showpageshadow="0"
     inkscape:pageopacity="0"
     inkscape:pagecheckerboard="0"
     inkscape:deskcolor="#d1d1d1"
     inkscape:document-units="px"
     showgrid="false"
     inkscape:zoom="8.0000004"
     inkscape:cx="42.374998"
     inkscape:cy="29.374999"
     inkscape:window-width="1920"
     inkscape:window-height="1007"
     inkscape:window-x="0"
     inkscape:window-y="0"
     inkscape:window-maximized="1"
     inkscape:current-layer="layer1" /><defs
     id="defs2"><linearGradient
       inkscape:collect="always"
       id="linearGradient34186"><stop
         style="stop-color:#4d4d4d;stop-opacity:1;"
         offset="0"
         id="stop34182" /><stop
         style="stop-color:#363636;stop-opacity:1;"
         offset="1"
         id="stop34184" /></linearGradient><linearGradient
       inkscape:collect="always"
       id="linearGradient1449"><stop
         style="stop-color:#828282;stop-opacity:1;"
         offset="0"
         id="stop1445" /><stop
         style="stop-color:#1a1a1a;stop-opacity:1;"
         offset="1"
         id="stop1447" /></linearGradient><filter
       style="color-interpolation-filters:sRGB"
       inkscape:label="Drop Shadow"
       id="filter8844"
       x="-0.23137505"
       y="-0.27996013"
       width="1.4627501"
       height="1.5599202"><feFlood
         flood-opacity="0.643137"
         flood-color="rgb(21,214,15)"
         result="flood"
         id="feFlood8834" /><feComposite
         in="flood"
         in2="SourceGraphic"
         operator="in"
         result="composite1"
         id="feComposite8836" /><feGaussianBlur
         in="composite1"
         stdDeviation="1"
         result="blur"
         id="feGaussianBlur8838" /><feOffset
         dx="0"
         dy="0"
         result="offset"
         id="feOffset8840" /><feComposite
         in="SourceGraphic"
         in2="offset"
         operator="over"
         result="composite2"
         id="feComposite8842" /></filter><linearGradient
       inkscape:collect="always"
       xlink:href="#linearGradient1449"
       id="linearGradient1451"
       x1="25"
       y1="0"
       x2="25"
       y2="50"
       gradientUnits="userSpaceOnUse" /><radialGradient
       inkscape:collect="always"
       xlink:href="#linearGradient34186"
       id="radialGradient34188"
       cx="25"
       cy="25"
       fx="25"
       fy="25"
       r="22.150156"
       gradientUnits="userSpaceOnUse" /></defs><g
     inkscape:label="Layer 1"
     inkscape:groupmode="layer"
     id="layer1"><circle
       style="fill:url(#linearGradient1451);stroke-width:1.175;fill-opacity:1;stroke:#000000;stroke-opacity:1;stroke-dasharray:none"
       id="path390"
       cx="25"
       cy="25"
       r="25" /><circle
       style="fill:url(#radialGradient34188);fill-opacity:1;stroke:none;stroke-width:1.04106;stroke-dasharray:none;stroke-opacity:1"
       id="circle3026"
       cx="25"
       cy="25"
       r="22.150156" /><g
       id="g34192"
       transform="matrix(0.67384617,0,0,0.67384617,-28.065386,8.1538458)"><path
         id="rect33995"
         style="fill:#fff500;fill-opacity:1;stroke:none;stroke-width:1.5867"
         d="M 78.75,4.6875 76.347656,17.287109 A 8.125,8.125 0 0 1 78.75,16.875 a 8.125,8.125 0 0 1 2.396484,0.365234 z m -14.363281,5.949219 7.197265,10.591797 a 8.125,8.125 0 0 1 3.394532,-3.394532 z m 28.726562,0 -10.568359,7.18164 a 8.125,8.125 0 0 1 3.386719,3.388672 z M 71.037109,22.597656 58.4375,25 71.037109,27.402344 A 8.125,8.125 0 0 1 70.625,25 8.125,8.125 0 0 1 71.037109,22.597656 Z m 15.472657,0.0078 A 8.125,8.125 0 0 1 86.875,25 8.125,8.125 0 0 1 86.462891,27.402344 L 99.0625,25 Z m -14.925782,6.166015 -7.197265,10.591797 10.591797,-7.197265 a 8.125,8.125 0 0 1 -3.394532,-3.394532 z m 14.332032,0 a 8.125,8.125 0 0 1 -3.394532,3.394532 l 10.591797,7.197265 z M 76.345703,32.712891 78.75,45.3125 81.152344,32.712891 A 8.125,8.125 0 0 1 78.75,33.125 8.125,8.125 0 0 1 76.345703,32.712891 Z" /><circle
         style="fill:#fff500;fill-opacity:1;stroke:none;stroke-width:3.11375;stroke-dasharray:none;stroke-opacity:1"
         id="path33108"
         cx="78.75"
         cy="25"
         r="6.625" /></g></g></svg>
